<svg xmlns="http://www.w3.org/2000/svg" xmlns:xlink="http://www.w3.org/1999/xlink" height="450" width="810">
<rect width="810" height="450" rx="8" ry="8" fill="#112709" stroke="#000" stroke-width="2" /><rect x="20" y="20" width="138" height="60" rx="3" ry="3" fill="#abe797" stroke="#ebf9e7" stroke-width="2" />
<text x="89" y="53" font-family="sans-serif" font-size="14" font-weight="bolder" dominant-baseline="middle" text-anchor="middle">MP3 V0</text>

<rect x="20" y="100" width="138" height="40" rx="3" ry="3" fill="#3dda07" stroke="#ebf9e7" stroke-width="1" />
<text x="89" y="122" font-family="sans-serif" font-size="12" font-weight="bold" dominant-baseline="middle" text-anchor="middle">V2</text>
<line x1="89" y1="100" x2="89" y2="90" stroke-width="2" stroke="#dffcd7" />
<polygon points="89,82 85,90 93,90" fill="#dffcd7" stroke="#dffcd7" />

<rect x="20" y="160" width="138" height="40" rx="3" ry="3" fill="#46c819" stroke="#ebf9e7" stroke-width="1" />
<text x="89" y="182" font-family="sans-serif" font-size="12" font-weight="bold" dominant-baseline="middle" text-anchor="middle">any VBR</text>
<line x1="89" y1="160" x2="89" y2="150" stroke-width="2" stroke="#dffcd7" />
<polygon points="89,142 85,150 93,150" fill="#dffcd7" stroke="#dffcd7" />

<rect x="336" y="20" width="138" height="60" rx="3" ry="3" fill="#abe797" stroke="#ebf9e7" stroke-width="2" />
<text x="405" y="53" font-family="sans-serif" font-size="14" font-weight="bolder" dominant-baseline="middle" text-anchor="middle">MP3 320</text>

<rect x="336" y="100" width="138" height="40" rx="3" ry="3" fill="#3dda07" stroke="#ebf9e7" stroke-width="1" />
<text x="405" y="122" font-family="sans-serif" font-size="12" font-weight="bold" dominant-baseline="middle" text-anchor="middle">256 CBR</text>
<line x1="405" y1="100" x2="405" y2="90" stroke-width="2" stroke="#dffcd7" />
<polygon points="405,82 401,90 409,90" fill="#dffcd7" stroke="#dffcd7" />

<rect x="336" y="160" width="138" height="40" rx="3" ry="3" fill="#46c819" stroke="#ebf9e7" stroke-width="1" />
<text x="405" y="182" font-family="sans-serif" font-size="12" font-weight="bold" dominant-baseline="middle" text-anchor="middle">224 CBR</text>
<line x1="405" y1="160" x2="405" y2="150" stroke-width="2" stroke="#dffcd7" />
<polygon points="405,142 401,150 409,150" fill="#dffcd7" stroke="#dffcd7" />

<rect x="336" y="220" width="138" height="40" rx="3" ry="3" fill="#43b72a" stroke="#ebf9e7" stroke-width="1" />
<text x="405" y="242" font-family="sans-serif" font-size="12" font-weight="bold" dominant-baseline="middle" text-anchor="middle">192 CBR</text>
<line x1="405" y1="220" x2="405" y2="210" stroke-width="2" stroke="#dffcd7" />
<polygon points="405,202 401,210 409,210" fill="#dffcd7" stroke="#dffcd7" />

<rect x="336" y="280" width="138" height="40" rx="3" ry="3" fill="#56a63b" stroke="#ebf9e7" stroke-width="1" />
<text x="405" y="302" font-family="sans-serif" font-size="12" font-weight="bold" dominant-baseline="middle" text-anchor="middle">&lt; 192 CBR</text>
<line x1="405" y1="280" x2="405" y2="270" stroke-width="2" stroke="#dffcd7" />
<polygon points="405,262 401,270 409,270" fill="#dffcd7" stroke="#dffcd7" />

<line x1="336" y1="120" x2="277" y2="120" stroke-width="2" stroke="#dffcd7" />
<path d="M 247 90 C 247 100, 257 120, 277 120" fill="transparent" stroke-width="2" stroke="#dffcd7"/>
<line x1="336" y1="180" x2="277" y2="180" stroke-width="2" stroke="#dffcd7" />
<path d="M 247 150 C 247 160, 257 180, 277 180" fill="transparent" stroke-width="2" stroke="#dffcd7"/>
<line x1="336" y1="240" x2="277" y2="240" stroke-width="2" stroke="#dffcd7" />
<path d="M 247 210 C 247 220, 257 240, 277 240" fill="transparent" stroke-width="2" stroke="#dffcd7"/>
<line x1="336" y1="300" x2="277" y2="300" stroke-width="2" stroke="#dffcd7" />
<path d="M 247 270 C 247 280, 257 300, 277 300" fill="transparent" stroke-width="2" stroke="#dffcd7"/>
<rect x="20" y="390" width="138" height="40" rx="3" ry="3" fill="#5f944d" stroke="#ebf9e7" stroke-width="1" />
<text x="89" y="412" font-family="sans-serif" font-size="12" font-weight="bold" dominant-baseline="middle" text-anchor="middle">192 AAC</text>
<rect x="178" y="390" width="138" height="40" rx="3" ry="3" fill="#5f944d" stroke="#ebf9e7" stroke-width="1" />
<text x="247" y="412" font-family="sans-serif" font-size="12" font-weight="bold" dominant-baseline="middle" text-anchor="middle">256 AAC</text>
<line x1="158" y1="410" x2="176" y2="410" stroke-width="2" stroke="#dffcd7" />
<polygon points="176,410 170,407 170,413" fill="#dffcd7" stroke-width="2" stroke="#dffcd7" />
<rect x="336" y="390" width="138" height="40" rx="3" ry="3" fill="#5f944d" stroke="#ebf9e7" stroke-width="1" />
<text x="405" y="412" font-family="sans-serif" font-size="12" font-weight="bold" dominant-baseline="middle" text-anchor="middle">320 AAC</text>
<line x1="316" y1="410" x2="334" y2="410" stroke-width="2" stroke="#dffcd7" />
<polygon points="334,410 328,407 328,413" fill="#dffcd7" stroke-width="2" stroke="#dffcd7" />
<path d="M 89 390 C 89 380, 99 360, 119 360" fill="transparent" stroke-width="2" stroke="#dffcd7"/>
<path d="M 247 330 C 247 340, 237 360, 217 360" fill="transparent" stroke-width="2" stroke="#dffcd7"/>
<line x1="118" y1="360" x2="217" y2="360" stroke-width="2" stroke="#dffcd7" />
<line x1="247" y1="390" x2="247" y2="330" stroke-width="2" stroke="#dffcd7" />
<path d="M 247 330 C 247 340, 257 360, 277 360" fill="transparent" stroke-width="2" stroke="#dffcd7"/>
<path d="M 404.0 390 C 404.0 380, 394.0 360, 374.0 360" fill="transparent" stroke-width="2" stroke="#dffcd7"/>
<line x1="276.0" y1="360" x2="374.0" y2="360" stroke-width="2" stroke="#dffcd7" />
<line x1="247" y1="80" x2="247" y2="330" stroke-width="2" stroke="#dffcd7" />
<path d="M 247 80 C 247 70, 237 50, 217 50" fill="transparent" stroke-width="2" stroke="#dffcd7"/>
<line x1="217" y1="50" x2="160" y2="50" stroke-width="2" stroke="#dffcd7" />
<polygon points="160,50 166,47 166,53" fill="#dffcd7" stroke-width="2" stroke="#dffcd7" />
<rect x="494" y="20" width="138" height="60" rx="3" ry="3" fill="#abe797" stroke="#ebf9e7" stroke-width="2" />
<text x="563" y="43" font-family="sans-serif" font-size="14" font-weight="bolder" dominant-baseline="middle" text-anchor="middle">FLAC 100% Log</text>
<text x="563" y="61" font-family="sans-serif" font-size="14" font-weight="bolder" dominant-baseline="middle" text-anchor="middle">+ Cue + Checksum</text>

<rect x="494" y="100" width="138" height="40" rx="3" ry="3" fill="#3dda07" stroke="#ebf9e7" stroke-width="1" />
<text x="563" y="115" font-family="sans-serif" font-size="12" font-weight="bold" dominant-baseline="middle" text-anchor="middle">FLAC 100% Log + Cue</text>
<text x="563" y="131" font-family="sans-serif" font-size="12" font-weight="bold" dominant-baseline="middle" text-anchor="middle">No Checksum</text>
<line x1="563" y1="100" x2="563" y2="90" stroke-width="2" stroke="#dffcd7" />
<polygon points="563,82 559,90 567,90" fill="#dffcd7" stroke="#dffcd7" />

<rect x="494" y="160" width="138" height="40" rx="3" ry="3" fill="#46c819" stroke="#ebf9e7" stroke-width="1" />
<text x="563" y="175" font-family="sans-serif" font-size="12" font-weight="bold" dominant-baseline="middle" text-anchor="middle">FLAC 100% Log</text>
<text x="563" y="191" font-family="sans-serif" font-size="12" font-weight="bold" dominant-baseline="middle" text-anchor="middle">No Checksum</text>
<line x1="563" y1="160" x2="563" y2="150" stroke-width="2" stroke="#dffcd7" />
<polygon points="563,142 559,150 567,150" fill="#dffcd7" stroke="#dffcd7" />


<path d="M 721 100 C 721 65, 675 50, 635 50" fill="transparent" stroke-width="2" stroke="#dffcd7"/>
<polygon points="635,50 641,47 641,53" fill="#dffcd7" stroke-width="2" stroke="#dffcd7" />

<rect x="652" y="100" width="138" height="40" rx="3" ry="3" fill="#3dda07" stroke="#ebf9e7" stroke-width="1" />
<text x="721" y="115" font-family="sans-serif" font-size="12" font-weight="bold" dominant-baseline="middle" text-anchor="middle">FLAC &lt; 100% Log</text>
<text x="721" y="131" font-family="sans-serif" font-size="12" font-weight="bold" dominant-baseline="middle" text-anchor="middle">or No log</text>
</svg>
