<svg xmlns="http://www.w3.org/2000/svg" viewBox="0 0 17 19"><path d="M5.05981317002 7.1050277c0-.4981674.080213-.5669911.5852083-.566991h5.7101347c.489151 0 .585035.053999.585035.5516563s-.08206.5828768-.585035.5828768h-5.7106857c-.5013451 0-.5846573-.069375-.5846573-.5675421zm6.880378 2.3952476c0 .4959228-.08615.5669917-.585586.5669917h-5.7095837c-.5051572 0-.5852083-.1098976-.5852083-.6068151s.089089-.5277184.5852083-.5277184h5.7106857c.504365 0 .584484.071619.584484.5675418zm0 2.3941457c0 .503687-.08678.567543-.585586.567543h-5.7095837c-.4984087 0-.5859242-.06899-.5852083-.568193s.087126-.566341.5852083-.566341h5.7106857c.504289 0 .584484.0633.584484.566991z" fill="#ccc"/></svg>
