<svg xmlns="http://www.w3.org/2000/svg" width="44" height="20" stroke="#000" stroke-width="0"><g stroke="none" style="fill:#000"><path d="M24.812 1.612c-.832.758-.324 2.012-.464 3.002.022 2.754-.044 5.52.033 8.265.213 1.227 1.694.82 2.585.885.874-.07 2.285.331 2.575-.808.098-.72.017-1.46.043-2.188.978-.1 2.093.237 2.97-.246.725-.765.248-1.957.386-2.912-.045-1.791.089-3.608-.067-5.383-.313-1.138-1.735-.677-2.611-.77-1.712.044-3.449-.09-5.144.067z" style="fill:#4d4d4d;fill-opacity:.133333;stroke:none;stroke-width:1.19849;stroke-linejoin:round"/><path d="M29.846 10.84c-.832.759-.325 2.012-.464 3.003.063 1.588-.13 3.214.1 4.78.447 1.038 1.807.535 2.697.654 2.754-.023 5.52.045 8.265-.034 1.205-.2.832-1.649.885-2.524-.044-1.752.09-3.528-.067-5.264-.312-1.137-1.735-.677-2.61-.77-2.794.023-5.6-.045-8.385.034z" style="fill:#4d4d4d;fill-opacity:.133333;stroke:none;stroke-width:1.19849;stroke-linejoin:round"/><path d="M23.629.86v14h5v5h13.406v-10H33.63v-9zm1.662 1.576h6.678v7.423h-3.34v3H25.29zm5 9.17h10.084v6.677H30.291Z" style="fill:#111;fill-opacity:1"/><path fill="none" d="M99.4 96.7a33.3 33.3 0 0 1-5.2-10.3h-62a33.3 33.3 0 0 1-5.3 10.3ZM70.1 21.2a7.3 7.3 0 0 0-13.9 0 34.2 34.2 0 0 1 14 0zm21.2 48.2V54.7a28.2 28.2 0 0 0-28.1-28.2A28.2 28.2 0 0 0 35 54.7v14.7c0 .4 0 5.2-1.3 11h58.9a62.6 62.6 0 0 1-1.3-11M63.2 36.7c-9.6 0-17.4 7.8-17.4 17.4a3 3 0 0 1-6 0 23.4 23.4 0 0 1 23.4-23.4 3 3 0 1 1 0 6m0 73.7c4.5 0 8.5-3.3 9.8-7.7H53.3c1.3 4.4 5.3 7.7 9.9 7.7" style="fill:#4d4d4d;fill-opacity:.133333;stroke:none;stroke-opacity:1" transform="translate(-1.3 -1.3)scale(.17859)"/><path d="M109 97c-11.2-5.2-11.7-27-11.7-27.6V54.7a34.2 34.2 0 0 0-20.9-31.5A13.3 13.3 0 0 0 63.2 10c-7.3 0-13.2 5.9-13.3 13.2A34.2 34.2 0 0 0 29 54.7v14.7c0 .5-.4 22.4-11.7 27.5a3 3 0 0 0 1.2 5.8H47a16.9 16.9 0 0 0 4.5 8.6 15.9 15.9 0 0 0 11.6 5 15.9 15.9 0 0 0 11.5-5 16.9 16.9 0 0 0 4.5-8.6h28.6a3 3 0 0 0 1.3-5.8ZM94.3 86.3a33.3 33.3 0 0 0 5.2 10.3H27a33.3 33.3 0 0 0 5.3-10.3ZM63.2 16c3.3 0 6 2.2 7 5.2a34.2 34.2 0 0 0-14 0 7.2 7.2 0 0 1 7-5.2M35 69.4V54.7a28.2 28.2 0 0 1 28.2-28.2 28.2 28.2 0 0 1 28.1 28.2v14.7c0 .5.1 5.2 1.3 11H33.7a62.7 62.7 0 0 0 1.3-11m28.2 41c-4.6 0-8.6-3.3-9.9-7.7H73a10.5 10.5 0 0 1-9.8 7.7m0-79.7a23.4 23.4 0 0 0-23.4 23.4 3 3 0 0 0 6 0c0-9.6 7.8-17.4 17.4-17.4a3 3 0 0 0 0-6" style="fill:#111;fill-opacity:1" transform="translate(-1.3 -1.3)scale(.17859)"/></g><path stroke="none" d="M36.63 5.792h2.288c0-1.74-1.189-2.9-3.289-2.9v-2.1c3.15 0 5.04 2.11 5.04 5h1.78l-2.62 3.39z" style="fill:#111;fill-opacity:1"/></svg>
