<svg xmlns="http://www.w3.org/2000/svg" width="20" height="20" stroke="#000" stroke-width="0"><g stroke="none"><path fill="none" d="M99.4 96.7a33.3 33.3 0 0 1-5.2-10.3h-62a33.3 33.3 0 0 1-5.3 10.3ZM70.1 21.2a7.3 7.3 0 0 0-13.9 0 34.2 34.2 0 0 1 14 0zm21.2 48.2V54.7a28.2 28.2 0 0 0-28.1-28.2A28.2 28.2 0 0 0 35 54.7v14.7c0 .4 0 5.2-1.3 11h58.9a62.6 62.6 0 0 1-1.3-11M63.2 36.7c-9.6 0-17.4 7.8-17.4 17.4a3 3 0 0 1-6 0 23.4 23.4 0 0 1 23.4-23.4 3 3 0 1 1 0 6m0 73.7c4.5 0 8.5-3.3 9.8-7.7H53.3c1.3 4.4 5.3 7.7 9.9 7.7" style="fill:#000;fill-opacity:0;stroke:none;stroke-opacity:1" transform="translate(-1.3 -1.3)scale(.17859)"/><path d="M109 97c-11.2-5.2-11.7-27-11.7-27.6V54.7a34.2 34.2 0 0 0-20.9-31.5A13.3 13.3 0 0 0 63.2 10c-7.3 0-13.2 5.9-13.3 13.2A34.2 34.2 0 0 0 29 54.7v14.7c0 .5-.4 22.4-11.7 27.5a3 3 0 0 0 1.2 5.8H47a16.9 16.9 0 0 0 4.5 8.6 15.9 15.9 0 0 0 11.6 5 15.9 15.9 0 0 0 11.5-5 16.9 16.9 0 0 0 4.5-8.6h28.6a3 3 0 0 0 1.3-5.8zM94.3 86.3a33.3 33.3 0 0 0 5.2 10.3H27a33.3 33.3 0 0 0 5.3-10.3zM63.2 16c3.3 0 6 2.2 7 5.2a34.2 34.2 0 0 0-14 0 7.2 7.2 0 0 1 7-5.2M35 69.4V54.7a28.2 28.2 0 0 1 28.2-28.2 28.2 28.2 0 0 1 28.1 28.2v14.7c0 .5.1 5.2 1.3 11H33.7a62.7 62.7 0 0 0 1.3-11m28.2 41c-4.6 0-8.6-3.3-9.9-7.7H73a10.5 10.5 0 0 1-9.8 7.7m0-79.7a23.4 23.4 0 0 0-23.4 23.4 3 3 0 0 0 6 0c0-9.6 7.8-17.4 17.4-17.4a3 3 0 0 0 0-6" style="fill:#000;fill-opacity:1" transform="translate(-1.3 -1.3)scale(.17859)"/></g></svg>