<svg xmlns="http://www.w3.org/2000/svg" viewBox="0 0 17 19"><path d="M8.5 1.6660156c-7.0537771 0-10.5848254 8.5284564-5.5976562 13.5156254S16.417969 16.635808 16.417969 9.5820312c0-4.372434-3.545535-7.9160156-7.917969-7.9160156zM5.8443068 3.6799659c.1561459-.041942.3647273.01833.4726562.1347656.1772484.1912202.1743775.4777376-.00586.6679687l-.064453.068359.7597656.9003906.9550781 1.1308594.1972657.2304688.3320312-.00195c.297623-.00165.3470927.0023.4785157.033203.2383005.056033.5040032.196128.5859374.3066406.030991.041802.029775.1420449-.00195.1992188s-.051253.070303-.4882812.3378906l-1.2187526.7480442-.4550781.2792969-1.21875.7480469-.4179688.2558594-.375.2324216-.2597656.15625c-.1182302.065305-.2487222.036977-.3046875-.064453-.0352573-.063896-.0531531-.325474-.0332031-.4746092.030654-.2291504.1342519-.4994898.2871093-.75.0470984-.0771888.0841369-.1466898.0839844-.1523438s-.0448456-.1187016-.1015625-.2519531l-.3671875-.8652344-.2128906-.5-.2109375-.5019531-.2636719-.6035156c-.00551-.00561-.038403.0000929-.074219.013672-.0882449.0334513-.2512639.0282516-.3398435-.0117189-.1080692-.0487647-.1870213-.1217275-.2421875-.2265625-.0444805-.0845188-.05089-.110557-.0527344-.2089844-.0017241-.092545.0046296-.1280341.0371094-.1992188.0583541-.1278975.1310124-.1930942.3867187-.3476562l.4257813-.2597656.4628906-.2832032.5625-.3457031c.565188-.3473931.6098572-.3752506.6816407-.3945312zm.023437 1.0996093l-.066406.041016c-.25394.1541312-.3494662.2160551-.3496092.2265622s.030037.050742.066406.099609.1542004.2129047.2617187.3632812l.4863282.6757812.5.6972657c.1160152.1622475.2169221.2975588.2226562.2988281s.059331-.020738.1191406-.048828.1759863-.07618.2578125-.1054688.1486143-.057897.1484375-.064453-.082-.1178462-.1796875-.2460938l-.3378903-.4472654-1.0917969-1.4433594zM9.988838 8.7561378c1.128373-.6517526 2.538894.1637225 2.537109 1.4667972v.845703h.410157c.20902.000587.378319.169886.378906.378906v3.306641c-.000587.20902-.169886.378319-.378906.378906H8.7349318c-.2090205-.000587-.3783194-.169885-.3789063-.378906v-3.306641c.0005869-.209021.1698858-.378319.3789063-.378906h.4082031v-.845703c-.0007521-.6050046.321734-1.1643282.8457031-1.4667972zm-2.1679688.0976562c.00279.00265.034728.063332.070313.1347656l.6582031 1.3164064c.1281675.253229.1468584.298869.1484375.357422.00279.103396-.038888.174321-.1328125.226562-.057446.03195-.1323043.03349-.2070313.002-.052083-.02198-.089621-.06557-.2558594-.291015l-.2812504-.378954c-.3823725-.5088668-.6870641-.93048-.6816406-.945312s.672567-.4304717.6816406-.421875zm3.0136718.2050781c-.642075.0004535-1.1618611.5219896-1.1601561 1.1640629v.845703H11.99665v-.845703c.0017-.6428365-.519271-1.1646902-1.162109-1.1640629zm-.283203 3.1562499c-.353628.223351-.321531.749063.05664.927735v.884765c.00022.303165.455298.303165.455078 0v-.884765c.18476-.08776.302565-.273971.302734-.478516.0013-.418874-.460833-.67374-.814453-.449219z" fill="#ccc"/></svg>
