<svg xmlns="http://www.w3.org/2000/svg" viewBox="0 0 17 19"><path d="M8.5 1.6660156c-7.05377 0-10.5848205 8.5284614-5.5976562 13.5156254s13.5156252 1.45416 13.5156252-5.5996098c0-4.3724296-3.545539-7.9160156-7.917969-7.9160156zM7.8085938 3.9375c.2223944-.0173177.4796378.0774447.6191406.2363281.26183.2982061.2468718.7355448-.0351563 1.0175781l-.1015625.1015626 1.1191406 1.4003906L10.818359 8.453125l.289063.359375.503906.0117188c.452889.0096949.527876.0159484.726563.0683593.360264.0950299.760734.3167792.880859.4882813.04543.0648708.040854.2190016-.009766.3046875s-.081914.1049492-.757812.4941411l-1.884766 1.089843-.7031248.40625-1.8867187 1.087891-.6464844.373047L6.75 13.472656l-.4003906.226563c-.1825612.094507-.3799506.047243-.4609375-.109375-.051021-.098661-.0696751-.498526-.0332031-.72461.0560411-.347384.2259051-.754037.46875-1.128906.0748254-.115508.1347656-.217962.1347656-.226562s-.0656595-.183608-.1464844-.388672l-.5214844-1.3320315-.3027344-.7695313L5.1875 8.25l-.3769531-.9316406c-.0081532-.008767-.0582323.0003412-.1132813.0195312-.1356337.047274-.384448.0312448-.5175781-.0332031-.1624219-.0786275-.27779-.1937032-.3574219-.3554687C3.7580547 6.8188019 3.74877 6.7787351 3.75 6.6289062c.001174-.140874.0121162-.1938095.0644531-.3007812.094031-.1921964.2081274-.2890041.6035157-.5136719L5.0761719 5.4375l.7148437-.4121094.8691406-.5039062c.8741635-.505354.9466341-.5439233 1.0566407-.5703125.0299113-.0071758.0600262-.0111979.0917969-.0136719zM7.7050781 5.625l-.1035156.0585938c-.3926834.2240852-.5384139.314098-.5390625.3300781-.0002206.0100751.0443264.0804078.0976562.15625s.225398.329297.3828126.5625L8.2539062 7.78125l.7324219 1.0820312c.1698552.251613.3175019.4587676.3261719.4609376s.0894907-.0280745.1816406-.0683594.2707875-.1072336.3964844-.1484375.228516-.08377.228516-.09375-.116401-.1817279-.259766-.3808594L9.3613281 7.9375 7.7597656 5.6992188 7.7050781 5.625zm2.8066409 6.277344c.004127.004139.048399.098841.099609.208984l.947266 2.029297c.184613.390536.21289.461631.21289.550781 0 .157427-.067845.264214-.21289.339844-.088713.04625-.202053.043227-.314453-.007812-.078341-.035578-.133279-.101352-.376953-.451172l-.41211-.587891c-.5608844-.789909-1.0069067-1.44641-.9980468-1.46875.0109553-.027652 1.0412378-.626731 1.0546878-.613281z" fill="#ccc"/></svg>
