<svg xmlns="http://www.w3.org/2000/svg" viewBox="0 0 17 19"><path d="M-3068.9068 720.10286c-2.2362-1.16599-3.2693-2.82591-3.2693-5.25301 0-1.37445.4186-2.46216 3.2648-8.48315l14.606-31.29972 1.5514-3.20347c.2074-.20739 16.0874 9.03066 16.2563 9.45698.1366.34448-6.7379 10.45962-15.3852 22.63785l-6.3546 9.06947c-3.7568 5.39327-4.6072 6.411-5.815 6.95951-1.7329.78696-3.4867.8287-4.8544.11554zm80.3077-20.54419c-.8363-.43293-3.6106-2.00573-6.1652-3.49512l-8.9454-5.18065-9.9775-5.74814-29.0724-16.77958-10.8377-6.26624-29.0724-16.78895c-10.4205-6.00026-10.8994-6.31285-11.6697-7.61694-.7804-1.32104-.8617-3.68565-.1612-4.68578 1.852-2.64409 8.0215-6.06713 13.5758-7.53223 3.0632-.80804 4.2197-.91827 11.202-1.06774l7.7862-.16669 4.4593-5.55103 21.7106-27.13697 17.2513-21.58595-1.57-1.56997c-4.3481-4.34818-4.5829-11.0891-.5462-15.68662 2.458-2.79948 7.2835-4.3023 10.9727-3.41725 1.696.40685 2.7935.99982 16.2707 8.79099l13.4181 7.75301 11.0097 6.36441 10.1459 5.81462c6.0958 3.46376 7.8463 4.95476 9.296 7.9179.8069 1.64921.9835 2.46693 1.0016 4.63882.019 2.30995-.118 2.92106-1.1079 4.93173-1.2277 2.49398-3.0074 4.26142-5.5115 5.47364-2.0525.99361-5.8793 1.23813-7.9704.50929-.8487-.29586-1.6462-.42735-1.7719-.29219-.2653.28498-1.861 4.22672-5.8102 14.35188l-4.6366 11.8698-4.6421 11.8698-8.0586 20.54246-2.2655 5.98951c0 .13272.9438 1.6983 2.0974 3.4791 3.744 5.77945 6.3409 12.05508 7.2049 17.4108.5623 3.4856.2855 9.66391-.5011 11.185-1.2486 2.41461-4.2941 3.13232-7.1087 1.67528zm-40.6558-74.56031l11.3099-16.68654 10.9615-16.17045 5.9075-8.66296c.8222-1.16928 1.4921-2.25304 1.4887-2.40837-.01-.24637-2.2536-1.61963-8.3077-5.07441l-1.6049-.91585-.8498 1.13367c-.9637 1.28555-19.104 26.66012-24.669 34.50673l-7.6788 10.74273c-2.2103 3.07006-4.0187 5.70784-4.0187 5.86174s1.5856.79953 3.5237 1.43477 4.6861 1.66315 6.1069 2.28424 2.6927 1.1019 2.8264 1.0685 2.3856-3.23462 5.0043-7.1138zm-150.7149 111.18302l2.0925 77.58971c.14462116836 4.90460573653 4.22492795204 8.77063183669 9.1302 8.65072l98.5587-2.65795c4.90460583956-.14463191029 8.77062316971-4.22494780936 8.6507-9.13022l-2.0924-77.58972c-.14461561347-4.9046496534-4.2249855717-8.77069773601-9.1303-8.65073l-9.6089.25913-.5352-19.84642c-.36427309121-14.18553205483-8.2751061026-27.09707117314-20.74808862028-33.86365980237s-27.60977496512-6.35837821673-39.69992928358 1.07063134844S-3162.64611380281 692.76102337844-3162.2453 706.94557l.5352 19.84643-9.609.25913c-4.90461783091.14463186019-8.77063996032 4.22496623163-8.6507 9.13025zm30.1621-29.57123c-.40560620455-15.04023252095 11.45810247905-27.56155879545 26.498335-27.967165s27.56155879545 11.45810247905 27.967165 26.498335l.5352 19.84643-54.4654 1.46883zm16.3399 56.88402c-.16628170129-6.16232286124 4.20482509518-11.51732334126 10.27560436049-12.58854309563s12.01067265972 2.46435250909 13.96351022898 8.3114285372S-3109.898916876 771.45960749622-3115.395 774.25155l.5597 20.75568c.07483883913 2.94175231873-2.24683974796 5.38838019373-5.1884743757 5.46771034842S-3125.41557871468 798.23633007966-3125.4994 795.29482l-.5597-20.75568c-4.39514288847-1.94217769075-7.27907997346-6.24158225371-7.4087-11.04497z" fill="#ccc" transform="matrix(-.066446 .00179192 .00179192 .066446 -196.30809 -30.711629)"/></svg>
