<svg xmlns="http://www.w3.org/2000/svg" viewBox="0 0 19 19"><path d="M-3068.9068 720.10286c-2.2362-1.16599-3.2693-2.82591-3.2693-5.25301 0-1.37445.4186-2.46216 3.2648-8.48315l14.606-31.29972 1.5514-3.20347c.2074-.20739 16.0874 9.03066 16.2563 9.45698.1366.34448-6.7379 10.45962-15.3852 22.63785l-6.3546 9.06947c-3.7568 5.39327-4.6072 6.411-5.815 6.95951-1.7329.78696-3.4867.8287-4.8544.11554zm80.3077-20.54419c-.8363-.43293-3.6106-2.00573-6.1652-3.49512l-8.9454-5.18065-9.9775-5.74814-29.0724-16.77958-10.8377-6.26624-29.0724-16.78895c-10.4205-6.00026-10.8994-6.31285-11.6697-7.61694-.7804-1.32104-.8617-3.68565-.1612-4.68578 1.852-2.64409 8.0215-6.06713 13.5758-7.53223 3.0632-.80804 4.2197-.91827 11.202-1.06774l7.7862-.16669 4.4593-5.55103 21.7106-27.13697 17.2513-21.58595-1.57-1.56997c-4.3481-4.34818-4.5829-11.0891-.5462-15.68662 2.458-2.79948 7.2835-4.3023 10.9727-3.41725 1.696.40685 2.7935.99982 16.2707 8.79099l13.4181 7.75301 11.0097 6.36441 10.1459 5.81462c6.0958 3.46376 7.8463 4.95476 9.296 7.9179.8069 1.64921.9835 2.46693 1.0016 4.63882.019 2.30995-.118 2.92106-1.1079 4.93173-1.2277 2.49398-3.0074 4.26142-5.5115 5.47364-2.0525.99361-5.8793 1.23813-7.9704.50929-.8487-.29586-1.6462-.42735-1.7719-.29219-.2653.28498-1.861 4.22672-5.8102 14.35188l-4.6366 11.8698-4.6421 11.8698-8.0586 20.54246-2.2655 5.98951c0 .13272.9438 1.6983 2.0974 3.4791 3.744 5.77945 6.3409 12.05508 7.2049 17.4108.5623 3.4856.2855 9.66391-.5011 11.185-1.2486 2.41461-4.2941 3.13232-7.1087 1.67528zm-40.6558-74.56031l11.3099-16.68654 10.9615-16.17045 5.9075-8.66296c.8222-1.16928 1.4921-2.25304 1.4887-2.40837-.01-.24637-2.2536-1.61963-8.3077-5.07441l-1.6049-.91585-.8498 1.13367c-.9637 1.28555-19.104 26.66012-24.669 34.50673l-7.6788 10.74273c-2.2103 3.07006-4.0187 5.70784-4.0187 5.86174s1.5856.79953 3.5237 1.43477 4.6861 1.66315 6.1069 2.28424 2.6927 1.1019 2.8264 1.0685 2.3856-3.23462 5.0043-7.1138z" transform="matrix(-.102414 0 0 .102414 -299.97046 -55.514641)" fill="#ccc"/></svg>
