<svg xmlns="http://www.w3.org/2000/svg" xmlns:xlink="http://www.w3.org/1999/xlink" width="50" height="50" xmlns:v="https://vecta.io/nano"><defs><linearGradient id="A" x1="76.825833" y1="211.63046" x2="81.784531" y2="-1.7247574" gradientUnits="userSpaceOnUse"><stop offset="0" stop-color="#fdfdfd"/><stop offset=".20693555" stop-color="#e6e8e8"/><stop offset=".89551342" stop-color="#556360"/><stop stop-color="#303835" offset="1"/></linearGradient></defs><g transform="matrix(.282978 0 0 .260501 -2.3366576 4.0948158)" stroke-width=".406062"><path d="M95.705084 32.442214C128.88271 22.315538 151.03001 50.890115 150.6027 85.23 149.81822 148.27312 95.72751 160 85.364084 160c-40.892 0-69.836-33.796-69.836-80.036 0-39.185113 20.231798-69.824316 56.049277-79.33334793l1.714716-.480966c.543097-.13809135 1.784167-.28284015 2.642412-.29845725l.871796-.0105758c8.915687-.03556 13.335286.53320554 30.447345.73974067C88.579967.64918309 41.029964 19.764005 41.029964 78.251005c0 38.140995 30.41263 58.960145 54.792048 49.137935 10.913868-4.39708 29.232428-17.48444 29.232428-47.17094-.28686-36.193706-25.563784-47.29234-29.349356-47.775786z" fill="url(#A)" id="B" fill-rule="evenodd" stroke="#423d3d" stroke-width=".406062" stroke-dasharray="none" stroke-opacity=".55"/><use xlink:href="#B" transform="rotate(180 95.278084 80.25)" fill="#3f3a3a" stroke="#3f3a3a"/></g></svg>
