<svg xmlns="http://www.w3.org/2000/svg" xmlns:xlink="http://www.w3.org/1999/xlink" width="200" height="50" xmlns:v="https://vecta.io/nano"><defs><linearGradient id="A" x1="81.574745" y1="158.40421" x2="81.784531" y2="-1.7247574" gradientUnits="userSpaceOnUse"><stop offset="0" stop-color="#fdfdfd"/><stop offset=".20693555" stop-color="#e6e8e8"/><stop offset=".89551342" stop-color="#556360"/><stop stop-color="#303835" offset="1"/></linearGradient></defs><g transform="matrix(.273098 0 0 .273098 -38.16724 -15.811023)"><g transform="matrix(1.036179 0 0 .9538740000000001 164.15566 72.888995)" stroke-width=".406062"><path d="M95.705084 32.442214C128.88271 22.315538 151.03001 50.890115 150.6027 85.23 149.81822 148.27312 95.72751 160 85.364084 160c-40.892 0-69.836-33.796-69.836-80.036 0-39.185113 20.231798-69.824316 56.049277-79.33334793l1.714716-.480966c.543097-.13809135 1.784167-.28284015 2.642412-.29845725l.871796-.0105758c8.915687-.03556 13.335286.53320554 30.447345.73974067C88.579967.64918309 41.029964 19.764005 41.029964 78.251005c0 38.140995 30.41263 58.960145 54.792048 49.137935 10.913868-4.39708 29.232428-17.48444 29.232428-47.17094-.28686-36.193706-25.563784-47.29234-29.349356-47.775786z" fill="url(#A)" id="B" fill-rule="evenodd" stroke="#423d3d" stroke-width=".406062" stroke-dasharray="none" stroke-opacity=".55"/><use xlink:href="#B" transform="rotate(180 95.278084 80.25)" fill="#3f3a3a" stroke="#3f3a3a"/></g><path d="M390.77126 149.23933q0-10.41669 7.69277-17.89488 7.65736-7.4782 18.39537-7.4782 10.62293 0 18.21832 7.53978 7.62195 7.54858 7.62195 18.12363 0 10.65424-7.65736 18.07085-7.69277 7.4518-18.56356 7.4518-9.62261 0-17.27997-6.616-8.42752-7.32864-8.42752-19.18818zm7.55998.10558q0 8.18203 5.53278 13.46076 5.50622 5.27872 12.7121 5.27872 7.81671 0 13.19014-5.3667 5.37343-5.44589 5.37343-13.24961 0-7.8917-5.31146-13.23201-5.27606-5.36671-13.05735-5.36671-7.75474 0-13.10161 5.36671-5.33803 5.30512-5.33803 13.10884zm93.80931 3.76549l15.38554 21.04453h-9.17113L484.1645 153.9462h-1.35442v20.20873h-7.49802v-49.3737h8.79048q9.84391 0 14.21701 3.67751 4.82458 4.09981 4.82458 10.8126 0 5.24353-3.01868 9.01782-3.02753 3.77429-7.9849 4.83004zm-9.33047-5.65703h2.39016q10.64063 0 10.64063-8.09405 0-7.56618-10.35735-7.56618h-2.67344zm62.86118 6.65119v20.05917h-7.49802v-49.3825h8.49834q6.24097 0 9.42785.87099 3.21344.86219 5.66556 3.25521 4.27573 4.1614 4.27573 10.49587 0 6.77437-4.56786 10.73342-4.57671 3.96784-12.32259 3.96784zm0-6.90633h2.79737q10.33079 0 10.33079-7.8917 0-7.65416-10.64948-7.65416h-2.47868zm58.77135-3.09686h21.4229v-19.32014h7.50687v49.3737h-7.49802v-23.05044h-21.4229v23.05044h-7.50687v-49.3737h7.49802zm91.43685-12.31703h-19.91799v11.86834h19.33373v7.00311h-19.33373v16.49603h19.91799v7.00311h-27.41601v-49.3737h27.41601zm40.52647-7.00311v29.73683q0 6.36967 2.08917 9.30816 3.12492 4.25817 8.78162 4.25817 5.70098 0 8.81703-4.25817 2.09803-2.84172 2.09803-9.29936v-29.74563h7.48917v31.77794q0 7.80372-4.88655 12.8537-5.50622 5.63065-13.51768 5.63065-8.01145 0-13.47341-5.63065-4.8954-5.04998-4.8954-12.8449v-31.78674zm92.46373 7.35503l-6.08162 3.58953q-1.70852-2.94729-3.24885-3.84467-1.61114-1.02056-4.16064-1.02056-3.11606 0-5.17868 1.75958-2.05377 1.72438-2.05377 4.34615 0 3.61593 5.39999 5.8242l4.95737 2.01471q6.05507 2.42822 8.85244 5.94737 2.79737 3.48396 2.79737 8.56914 0 6.80955-4.56786 11.26128-4.60327 4.46932-11.41965 4.46932-6.47113 0-10.68489-3.80068-4.1518-3.80948-5.17868-10.71582l7.58654-1.6628q.52229 4.34616 1.8059 6.00896 2.31934 3.20242 6.75441 3.20242 3.50557 0 5.8249-2.34023 2.31934-2.33144 2.31934-5.91218 0-1.44285-.41606-2.62177-.38951-1.2141-1.25705-2.19947-.84098-1.02935-2.18655-1.89154-1.35442-.89738-3.22229-1.69799l-4.78917-1.97952q-10.20686-4.28457-10.20686-12.53698 0-5.56026 4.28458-9.30816 4.27573-3.77429 10.64949-3.77429 8.58686 0 13.42029 8.314z" stroke-opacity=".839768" fill="#d2c6bc" stroke="#4d4d4d" stroke-width=".377956"/></g></svg>