<svg xmlns="http://www.w3.org/2000/svg" xmlns:xlink="http://www.w3.org/1999/xlink" width="200" height="50" xmlns:v="https://vecta.io/nano"><defs><linearGradient id="A" x1="81.574745" y1="195.58344" x2="81.784531" y2="-1.7247574" gradientUnits="userSpaceOnUse"><stop offset="0" stop-color="#fdfdfd"/><stop offset=".20693555" stop-color="#e6e8e8"/><stop offset=".89551342" stop-color="#556360"/><stop stop-color="#303835" offset="1"/></linearGradient></defs><path d="M68.5516166104 25.46696421568q0-2.84517303984 2.10117242672-4.88773594368 2.09150068096-2.0425656352 5.02443778032-2.0425656352 2.90150460848 0 4.97607905152 2.05938535008 2.0818289352 2.06178894688 2.0818289352 4.95021580368 0 2.91005649664-2.09150068096 4.9357996856-2.10117242672 2.0353548448-5.07037925552 2.0353548448-2.6282784736 0-4.71977915456-1.807067776-2.30185910272-2.00171541504-2.30185910272-5.24098273248zm2.06490269728.02883769888q0 2.23480694608 1.51120139808 3.67661814336 1.50394417456 1.44180846592 3.4721321456 1.44180846592 2.1350221712 0 3.60269934768-1.4658389712 1.46767990784-1.48746861104 1.46767990784-3.61894547696 0-2.1555073712-1.45075366992-3.61413828336-1.4410791928-1.46584170256-3.5664323496-1.46584170256-2.11809593328 0-3.57852134896 1.46584170256-1.45800543072 1.44901925632-1.45800543072 3.58049612224zm25.62269969616 1.02849087664l4.20234485344 5.74801874608H97.9365980936L94.06067261104 26.75257986h-.36994086112v5.51973167728H91.6427525592v-13.4857349232h2.40099381392q2.68872620176 0 3.88317997472 1.00446037136 1.31776648288 1.11980570416 1.31776648288 2.9533103136 0 1.43219681008-.82451018048 2.46309128352-.82693016544 1.03089447344-2.1809636464 1.31925780544zm-2.54848725392-1.54513854608h.6528360104q2.90634184704 0 2.90634184704-2.2107764408 0-2.06659614048-2.82896788096-2.06659614048h-.73020997648zm17.16964852912 1.81667943184v5.47888145712h-2.04797645936v-13.48813852h2.32120259424q1.70463358192 0 2.5750852376.23789872464.87770341648.23549512784 1.54746839616.88911503856 1.16785578928 1.1366281504 1.16785578928 2.86679994832 0 1.85032432432-1.24764700896 2.93168340512-1.25006426256 1.08375994624-3.3657456736 1.08375994624zm0-1.88636735088h.76406245232q2.8217133888 0 2.8217133888-2.1555073712 0-2.09062664576-2.90875910064-2.09062664576h-.67701674048zm16.0525714536-.84586395296h5.85136794576v-5.27702575904h2.05039371296v13.4857349232H132.766736932v-6.29590497984h-5.85136794576v6.29590497984h-2.05039644432v-13.4857349232h2.04797919072zm24.9746954616-3.36422430608h-5.44032011664v3.24167091424h5.28073767728v1.91280145296h-5.28073767728v4.50565965008h5.44032011664v1.91280145296h-7.488296576v-13.4857349232h7.488296576zm11.06923790992-1.91280145296v8.12219879888q0 1.73978618512.57063026848 2.54239358976.85352541776 1.16305952112 2.39857656032 1.16305952112 1.55714014192 0 2.40824830608-1.16305952112.57304752208-.77617603392.57304752208-2.53998999296v-8.12460239568h2.04555920576v8.67969941984q0 2.13147686592-1.33468998944 3.5108082032-1.50394690592 1.5379332184-3.69216504448 1.5379332184-2.18821813856 0-3.68007331376-1.5379332184-1.3371099744-1.37933133728-1.3371099744-3.5084046064v-8.68210301664zm25.25517608864 2.00892347408l-1.66111209168.98042986608q-.46665831872-.80501100144-.88737516224-1.05011778512-.4400630664-.27875167616-1.1364232984-.27875167616-.85110816416 0-1.41448394048.48060464288-.56095579136.47099025568-.56095579136 1.1870900264 0 .98764065648 1.47493166864 1.5907986912l1.35403348096.55028983056q1.65385759952.66323429792 2.41792005184 1.62444085232.76406245232.95159489856.76406245232 2.34054062304 0 1.8599332488-1.24764700896 3.07586097408-1.25731602336 1.22073218752-3.11911479104 1.22073218752-1.76750129504 0-2.9184308464-1.03810253248-1.13400331344-1.04050612928-1.41448394048-2.92687621152l2.0721599208-.4541705408q.14265620144 1.18709275776.49325357104 1.64126329856.63349525024.87469618912 1.84487526112.87469618912.95749463616 0 1.5909898864-.63920106128.63349525024-.63680019584.63349525024-1.61482919648 0-.3940942776-.11364096416-.71609977072-.10638920336-.3316144176-.3433456088-.60075443792-.22970191328-.2811525416-.5972255208-.51664766944-.36994359248-.24510678368-.88012340144-.46378219664l-1.30809473712-.54067817472q-2.78786364432-1.17027031152-2.78786364432-3.42430056928 0-1.51870717536 1.17027577424-2.54239358976 1.16785305792-1.03089447344 2.90875636928-1.03089447344 2.34538332432 0 3.6655670608 2.270852704z" stroke-opacity=".839768" fill="#5b5955" stroke="#4d4d4d" stroke-width=".10323339002"/><g transform="matrix(.282978 0 0 .260501 6.663342434680004 4.09481575651)" stroke-width=".406062"><path d="M95.705084 32.442214C128.88271 22.315538 151.03001 50.890115 150.6027 85.23 149.81822 148.27312 95.72751 160 85.364084 160c-40.892 0-69.836-33.796-69.836-80.036 0-39.185113 20.231798-69.824316 56.049277-79.33334793l1.714716-.480966c.543097-.13809135 1.784167-.28284015 2.642412-.29845725l.871796-.0105758c8.915687-.03556 13.335286.53320554 30.447345.73974067C88.579967.64918309 41.029964 19.764005 41.029964 78.251005c0 38.140995 30.41263 58.960145 54.792048 49.137935 10.913868-4.39708 29.232428-17.48444 29.232428-47.17094-.28686-36.193706-25.563784-47.29234-29.349356-47.775786z" fill="url(#A)" id="B" fill-rule="evenodd" stroke="#423d3d" stroke-width=".406062" stroke-dasharray="none" stroke-opacity=".55"/><use xlink:href="#B" transform="rotate(180 95.278084 80.25)" fill="#3f3a3a" stroke="#3f3a3a"/></g></svg>
