<svg xmlns="http://www.w3.org/2000/svg" xmlns:xlink="http://www.w3.org/1999/xlink" width="200" height="50"><defs><linearGradient id="A" x1="-4.5348677068" y1="79.323485243" x2=".9515606452" y2="-34.936024045" gradientUnits="userSpaceOnUse"><stop offset="0" stop-color="#cad6d6" stop-opacity=".92711371"/><stop stop-color="#19191a" offset="1"/></linearGradient></defs><g transform="matrix(.273098 0 0 .273098 -36.549028 -15.811023)"><g transform="matrix(1.012377 0 0 .9527520000000002 169.38621 72.978845)" stroke-width=".406062"><path d="M80.177 32.442214C113.35463 22.315538 135.50193 50.890115 135.07462 85.23 134.29014 148.27312 80.199426 160 69.836 160 28.944 160 0 126.204 0 79.964 0 39.62541 21.44044 8.3432584 59.25271-.15383903c10.364907-.0150067 14.114908-.22157266 32.472833 0C73.051883-.08504958 25.50188 19.764005 25.50188 78.251005c0 38.140995 30.41263 58.960145 54.792048 49.137935 10.913867-4.39708 29.232432-17.48444 29.232432-47.17094-.28686-36.193706-26.542277-46.095394-29.34936-47.775786z" fill="url(#A)" id="B" fill-rule="evenodd" stroke="#3f3a3a" stroke-width=".406062" stroke-dasharray="none"/><g fill="#3f3a3a" stroke="#3f3a3a"><use xlink:href="#B"/><use xlink:href="#B" transform="rotate(180 79.75 80.25)"/></g></g><path d="M391.24719904 151.1468848q0-10.41668992 7.69277036-17.89488792 7.6573606-7.478198 18.39537032-7.478198 10.622928 0 18.21832152 7.53978316 7.62195084 7.54858104 7.62195084 18.1236328 0 10.65423268-7.6573606 18.07084552-7.69277036 7.45180436-18.56356668 7.45180436-9.62260228 0-17.27996288-6.61600576-8.42752288-7.32863404-8.42752288-19.18817628zm7.55998376.10557456q0 8.1820284 5.532775 13.4607564 5.50621768 5.278728 12.71210384 5.278728 7.81670452 0 13.1901356-5.3667068 5.37343108-5.44588772 5.37343108-13.24960728 0-7.89169836-5.311464-13.23201152-5.27605424-5.3667068-13.057349-5.3667068-7.75473744 0-13.1016112 5.3667068-5.33802132 5.30512164-5.33802132 13.1088412zm93.80930668 3.76549264l15.38554072 21.04452896h-9.17112784l-14.19046132-20.20873036h-1.35442332v20.20873036h-7.49801668V126.6887784h8.79047292q9.84391328 0 14.21701864 3.67751384 4.8245798 4.09981208 4.8245798 10.81259452 0 5.24353648-3.01868204 9.017827-3.02753448 3.77429052-7.98490088 4.83003612zm-9.33047176-5.65703684h2.3901588q10.64063288 0 10.64063288-8.0940496 0-7.5661768-10.3573548-7.5661768h-2.67343688zm62.86117644 6.65119728v20.0591664h-7.49801668V126.6887784h8.4983424q6.2409702 0 9.4278486.87099012 3.21343572.86219224 5.6655616 3.2552156 4.27572852 4.16139724 4.27572852 10.49587084 0 6.7743676-4.56785904 10.7334136-4.57671148 3.96784388-12.32259648 3.96784388zm0-6.9063358h2.79737104q10.33079748 0 10.33079748-7.89169836 0-7.6541556-10.64948532-7.6541556h-2.4786832zm58.77134916-3.09685376h21.4229048V126.6887784h7.50686912v49.37370256h-7.49801668v-23.0504456h-21.4229048v23.0504456h-7.50686912V126.6887784h7.49801668zm91.43685276-12.317032h-19.91799V145.560231h19.33372896v7.00311248h-19.33372896v16.496025h19.91799v7.00311248H668.9393894V126.6887784h27.41600668zm40.52647032-7.00311248v29.7368344q0 6.36966512 2.08917584 9.30815704 3.12491132 4.25817392 8.78162048 4.25817392 5.70097136 0 8.81703024-4.25817392 2.09802828-2.84171524 2.09802828-9.29935916V126.6887784h7.48916424v31.77794256q0 7.80371956-4.88654688 12.85370268-5.50621768 5.6306432-13.51767588 5.6306432-8.0114582 0-13.47341368-5.6306432-4.89539932-5.04998312-4.89539932-12.8449048V126.6887784zm92.4637358 7.35502768l-6.08162628 3.58953504q-1.70852092-2.9472898-3.24884548-3.84467356-1.61114408-1.02055408-4.1606468-1.02055408-3.11605888 0-5.1786774 1.759576-2.05376608 1.72438448-2.05376608 4.34615272 0 3.61592868 5.3999884 5.82419656l4.9573664 2.01471452q6.05506896 2.42821488 8.85244 5.94736688 2.79737104 3.48396048 2.79737104 8.56913512 0 6.80955912-4.56785904 11.2612864-4.6032688 4.46932304-11.4196476 4.46932304-6.47113364 0-10.68489508-3.80068416-4.15179436-3.80948204-5.1786774-10.71581784l7.58654108-1.66279932q.52229396 4.34615272 1.80589776 6.00895204 2.31933928 3.20242832 6.75441172 3.20242832 3.50556624 0 5.82490552-2.34023608 2.31933928-2.3314382 2.31933928-5.91217536 0-1.44285232-.41606468-2.62176824-.38950736-1.21410744-1.25704648-2.19947-.8409818-1.02935196-2.18655268-1.8915442-1.35442332-.89738376-3.22228816-1.69799084l-4.78917004-1.979523q-10.20686332-4.28456756-10.20686332-12.536979 0-5.56026016 4.28458096-9.30815704 4.27572852-3.77429052 10.64948532-3.77429052 8.5868668 0 13.42029904 8.3139966z" stroke-opacity=".839768" fill="#c8c4b7" stroke="#4d4d4d" stroke-width=".37795605053"/></g></svg>
