<svg xmlns="http://www.w3.org/2000/svg" xmlns:xlink="http://www.w3.org/1999/xlink" width="50" height="50"><defs><linearGradient id="A" x1="-4.5348678" y1="79.323486" x2=".95156062" y2="-34.936024" gradientUnits="userSpaceOnUse"><stop offset="0" stop-color="#cad6d6" stop-opacity=".92711371"/><stop stop-color="#19191a" offset="1"/></linearGradient></defs><g transform="matrix(.276478 0 0 .260195 2.9508691785799996 4.11937761181)" stroke-width=".406062"><path d="M80.177 32.442214C113.35463 22.315538 135.50193 50.890115 135.07462 85.23 134.29014 148.27312 80.199426 160 69.836 160 28.944 160 0 126.204 0 79.964 0 39.62541 21.44044 8.3432584 59.25271-.15383903c10.364907-.0150067 14.114908-.22157266 32.472833 0C73.051883-.08504958 25.50188 19.764005 25.50188 78.251005c0 38.140995 30.41263 58.960145 54.792048 49.137935 10.913867-4.39708 29.232432-17.48444 29.232432-47.17094-.28686-36.193706-26.542277-46.095394-29.34936-47.775786z" fill="url(#A)" id="B" fill-rule="evenodd" stroke="#3f3a3a" stroke-width=".406062" stroke-dasharray="none"/><g fill="#3f3a3a" stroke="#3f3a3a"><use xlink:href="#B"/><use xlink:href="#B" transform="rotate(180 79.75 80.25)"/></g></g></svg>
