<svg xmlns="http://www.w3.org/2000/svg" width="90" height="90"><path d="m63.954 39.292.76-.761 19.587-19.589c.932-.932.932-2.446 0-3.379s-2.445-.932-3.377 0l-18.68 18.681-.002.001-2.278 2.278-.002.002-11.864-20.548c-1.174-2.033-3.159-3.35-5.433-3.65a8 8 0 0 0-1.002-.065 7.36 7.36 0 0 0-6.436 3.715L6.007 66.585c-1.343 2.327-1.343 5.107 0 7.434s3.75 3.72 6.436 3.72h58.439a7.36 7.36 0 0 0 6.436-3.72c.672-1.164 1.008-2.43 1.007-3.712s-.336-2.55-1.007-3.713L62.434 40.811h.003zm6.647 29.662c.14.242.209.522.208.802s-.07.575-.208.814c-.278.482-.792.838-1.349.838h-55.18c-.555 0-1.07-.356-1.348-.838-.14-.242-.209-.528-.208-.803s.07-.55.208-.79l27.59-47.796a1.555 1.555 0 0 1 2.697-.009l11.825 20.48-8.35 8.35a7.56 7.56 0 0 1 3.333 3.42l.11-.11 7.38-7.38zM46.898 52.846a5.45 5.45 0 0 0-2.568-1.448 5.5 5.5 0 0 0-1.304-.156l-.238.005-.095.006q-.405.024-.802.108c-.999.21-1.95.701-2.727 1.474l-.01.01q-.302.302-.546.635l-.156.225a5.485 5.485 0 0 0 .157 6.25q.244.334.545.635a5.45 5.45 0 0 0 3.18 1.559l.36.034.332.011a5.45 5.45 0 0 0 4.248-2.02 5.477 5.477 0 0 0-.376-7.328"/></svg>
